<svg width="58" height="22" viewBox="0 0 58 22" fill="none" xmlns="http://www.w3.org/2000/svg">
<path d="M14.5422 15.848V11.168H21.0582V10.034H14.5422V5.552H21.8502V4.4H13.2102V17H22.1202V15.848H14.5422ZM34.4672 4.4V14.624L26.3492 4.4H25.2512V17H26.5832V6.776L34.6832 17H35.7812V4.4H34.4672Z" fill="#333333"/>
<path d="M49.2929 15.7071C49.6834 16.0976 50.3166 16.0976 50.7071 15.7071L57.0711 9.34315C57.4616 8.95262 57.4616 8.31946 57.0711 7.92893C56.6805 7.53841 56.0474 7.53841 55.6569 7.92893L50 13.5858L44.3431 7.92893C43.9526 7.53841 43.3195 7.53841 42.9289 7.92893C42.5384 8.31946 42.5384 8.95262 42.9289 9.34315L49.2929 15.7071ZM49 14V15H51V14H49Z" fill="black"/>
</svg>
